<svg xmlns="http://www.w3.org/2000/svg" width="1919" height="481.245" viewBox="0 0 1919 481.245"><path d="M-1715.567,1173.614l8.393-3.063-177.055,3.063h-163.579l-6.2-3.063H-2170.71l-124.923-5.845-64.109-14.13-44.38-19.488-23.011-7.795,9.861-16.078,34.519-13.154,53.9-11.748-13.858,5.477-13.862,7.531-5.389,6.846,1.542,1.827-.77,2.053,8.467,8.9,53.126,7.758h62.366l23.1-1.826-1.54-1.6,30.8.228,25.409-1.825,82.385-12.552,22.326-3.65,15.548-9.859,16.44-.973,13.149,2.923,13.38,8.821,23.867,5.935,19.248,7.986,22.328,3.651,29.258,2.739v-1.369l36.958,2.281,50.046-4.792h12.318l17.708,4.336,34.648,2.739,30.8-1.6-4.62-2.281,33.107-4.337,7.7-3.879-50.815-1.6,9.236-2.055,22.331-2.51-3.081-3.65,16.168-1.6,11.549-5.477-5.373-5.17,6.92-12.172-5.639-8.546-14.645,6.926,3.342-7.736-10.011-9.814-37.73-4.792-3.08,2.738-18.478-.456-.77,5.478,17.709,4.563,16.169,10.04-3.079,1.141-5.39-2.281-25.409-5.02-6.926,2.509-18.179-4.185-19.84-3.282-28.6-.684-35.526,1.778-32.394-.688-59.173-3.41-44.384-4.873-19.723-9.256-92.5-13.739-12.318,1.369-7.7-.684-40.808,1.826-45.425,4.107-33.017,1.274,13.149-3.9-98.623,2.436-47.671,3.41-8.217-3.41-69.038,10.719-87.118,9.256-85.474,16.078h9.86l-34.092,3.723V760.006l89.066,14.025,101.41,38.05,285.1,20.143v-8.952l110.976,8.952,292.757,15.668,78.448-21.263,51.664,8.953,91.844-2.239,51.659-15.667h233.438l5.739-25.74,93.759,12.31,105.239-6.714,7.654-16.787,99.495-12.31,130.112-22.382L-823.028,708l75.334-15.635v353.717l-60.349,11.436-95.337,7.307-11.509,8.283-83.828,12.18-70.683,13.155-69.036,24.847-128.211,22.9h-62.464v-6.82l-111.775,8.282-23.012,12.667-31.231-3.409-135.246,16.7Z" transform="translate(2666.695 -692.368)" fill="#eb5b29"/></svg>