<?xml version="1.0" encoding="utf-8"?>
<!-- Generator: Adobe Illustrator 26.1.0, SVG Export Plug-In . SVG Version: 6.00 Build 0)  -->
<svg version="1.1" id="Calque_1" xmlns="http://www.w3.org/2000/svg" xmlns:xlink="http://www.w3.org/1999/xlink" x="0px" y="0px"
	 viewBox="0 0 862.1 766.8" style="enable-background:new 0 0 862.1 766.8;" xml:space="preserve">
<style type="text/css">
	.st0{fill:#FFE314;}
	.st1{fill:#4D0000;}
	.st2{fill:#380B0E;}
</style>
<g>
	<path class="st0" d="M766.2,694.5c0,0.2-0.1,0.3-0.1,0.5c0,0.1,0.1,0.3,0.1,0.4c0.7,8.4,4.7,15.4,10.3,21l0.5,0l46.5,1.4l31.6,0.9
		c1.4,0,4.4-0.9,8.4-2.7V536.8C846.3,610.1,796.6,666.1,766.2,694.5z"/>
	<path class="st0" d="M332.9,254.8c-59.7,44.4-116.7,92.3-170.8,143.5C107.4,449.8,55.7,505.3,8.2,565.5l0,0l162.7-31.6
		c0,0,86-88.9,173.4-149.5c81.3-56.4,174-100,272.3-103.4c7.2-0.3,14.5-0.3,22-0.1c-1.1-8.5-2.4-17-3.9-25.4
		c-1.3-6.8-2-15.7-5.6-21.8l0,0c-6.2-10.5-66.9-57.6-66.9-57.6l40.6,6.7l9.6-9.3l-2.3-13.5l14.4,2.4c1.3,1.7,5.3,7.6,6.2,8.6
		c0.6,0.6,24,6.9,39,18.2c6.1,4.6,20.8,14.3,21.2,13.7c3,5.7,4.6,11.5,6.2,17.7c0.7,2.7,6.2,50.8-0.9,66.2
		c66.3,12.5,131.1,46.1,157.9,117.5c3.8,10.2,6.9,20.3,9.2,30.1V4.1c-120,22.3-237,72.2-341.4,129.2
		C456.3,169.3,393.1,209.9,332.9,254.8z"/>
	<path class="st1" d="M522,631.6L522,631.6c9.7-7.8,25-11.3,36.6-15.1c14.5-4.8,29.2-9.1,43.9-13.2c17.4-4.8,34.8-9.1,52.5-12.7
		c8.3-1.7,16.7-3.9,20.4-12.3c2.7-6.2,12.9-20.9,7.5-26.4c-23-23.5-52.8-40.9-84.5-50.6c-28.5-8.7-111.5,12.7-116.1,14.6
		c-10.4,4.3-20.2,8.6-29.4,15.2c1.2,0.6-12.2,28.7-18.7,40.4c-16.1,29-21.3,71.4-22.3,72.6c-1.5,1.8-10.7,10.3-13.4,13l-0.6,25.8
		l23-7.3l18.6,14.5l-1.8,72.6C437.9,762.5,505.3,645,522,631.6z M496.9,608.2c-4.2,4.8-7.5,9.3-10.7,13.8l0,0c-2.9,4-5.6,8-8.3,11.9
		l0.9-14.7l-25.6,7.3l-28,8.9c1.4-6.3,3.2-12.5,5.2-18.6c4.4-13,10.5-25.4,18.3-36.6c7.5-10.9,16.9-20.5,27.7-28.2
		c10.6-7.3,22.5-12.7,35-15.7c12.4-3.1,25.5-4.8,38.4-3.4c41.2,4.5,65.2,31.9,65.2,31.9s-52.3,12.4-69.8,18.4
		C530,588.5,508,595.7,496.9,608.2z"/>
	<path class="st0" d="M615,564.9c0,0-24-27.4-65.2-31.9c-12.9-1.4-26,0.3-38.4,3.4c-12.5,3-24.4,8.4-35,15.7
		c-10.8,7.7-20.2,17.3-27.7,28.2c-7.8,11.3-14,23.6-18.3,36.6c-2.1,6.1-3.8,12.3-5.2,18.6l28-8.9l25.6-7.3l-0.9,14.7
		c2.7-4,5.4-7.9,8.3-11.9l0,0c3.3-4.5,6.5-8.9,10.7-13.8c11.1-12.5,33.1-19.7,48.3-25C562.7,577.2,615,564.9,615,564.9z"/>
	<path class="st1" d="M31.3,291.8L6.4,309c0,0,56.2-6.1,64.8-3.7c5,1.4,9.9,5.7,14.1,8.6c5.2,3.7,10.2,7.6,15.2,11.6
		c5.9,4.7,11.6,9.5,17.2,14.6c2.6,2.4,5.4,4.7,9.2,3.9c2.7-0.6,10.2-0.8,10.7-4c2.2-13.7,0.9-27.8-3.6-40.9
		c-1.5-4.4-6.3-10.3-11.8-16.1l-0.2-0.2c-9.2-9.6-20.2-18.6-21.3-19.3c-3.9-2.5-8-4.6-12.4-6.2c0.1,0.6-12.7,2.9-18.2,3.6
		c-13.8,1.7-29.3,10.3-30,10.3c-1-0.1-6.1-1.1-7.7-1.3l-8.8,6.1h0l8.1,6L31.3,291.8z M53.7,270.7c5.5-1.7,11.1-2.7,16.9-2.8
		c5.5-0.1,11.1,0.7,16.3,2.4c5.1,1.8,9.8,4.5,13.9,8c4.2,3.4,7.8,7.5,10.6,12.1c5.1,9,7,19.6,5.2,29.8c0,0-17-14.6-23.3-19
		c-5.5-3.9-13.3-9.5-20.3-10.2c-2.7-0.2-5-0.2-7.3-0.3c-2,0-4.1,0.1-6.1,0.1l5.2-3.3l-8.7-6.8l-9.9-7.3
		C48.7,272.5,51.2,271.5,53.7,270.7z"/>
	<path class="st0" d="M64.8,287.6l-5.2,3.3c2-0.1,4-0.1,6.1-0.1c2.3,0,4.6,0,7.3,0.3c6.9,0.7,14.8,6.3,20.3,10.2
		c6.3,4.4,23.3,19,23.3,19c1.7-10.2-0.1-20.8-5.2-29.8c-2.8-4.6-6.4-8.7-10.6-12.1c-4.1-3.5-8.8-6.2-13.9-8
		c-5.3-1.7-10.8-2.6-16.3-2.4c-5.7,0.1-11.4,1.1-16.9,2.8c-2.6,0.8-5.1,1.7-7.5,2.8l9.9,7.3L64.8,287.6z"/>
	<path class="st2" d="M697.2,220.4c-1.6-6.2-3.3-12-6.2-17.7c-0.5,0.6-15.1-9.1-21.2-13.7c-15-11.4-38.4-17.6-39-18.2
		c-0.9-1-4.9-6.8-6.2-8.6l-14.4-2.4l2.3,13.5l-9.6,9.3l-40.6-6.7c0,0,60.7,47.1,66.9,57.6l0,0c3.6,6.1,4.4,14.9,5.6,21.8
		c1.6,8.4,2.8,16.9,3.9,25.4c0,0.1,0,0.2,0,0.3c1.3,10.1,2.4,20.3,3,30.5c0.3,4.8,0.9,9.7,5.3,12.4c3.2,2,10.7,8.9,14.2,6.3
		c8.7-6.5,16.5-14.2,22.9-23c4.7-6.4,8.8-13.2,12.2-20.4c0,0,0-0.1,0.1-0.1C703.4,271.2,697.9,223.2,697.2,220.4z"/>
</g>
</svg>
